<?xml version="1.0" encoding="UTF-8"?>
<svg version="1.1" xmlns="http://www.w3.org/2000/svg" width="1080" height="1080">
<path d="M0 0 C2.11823199 0.0054411 4.23645281 0.00780766 6.35469055 0.00987244 C26.91757725 0.04110518 47.17711231 0.585414 67.58503723 3.31785583 C69.91178018 3.59976663 72.23860366 3.88101357 74.56550598 4.16160583 C124.09404825 10.4272648 172.94274678 24.17039538 218.58503723 44.31785583 C219.61129211 44.76854431 220.637547 45.21923279 221.69490051 45.68357849 C265.59923536 65.09384493 306.89272122 90.20526754 343.84968567 120.88670349 C345.38664088 122.15423746 346.94161889 123.39984791 348.49909973 124.64207458 C355.32811492 130.09118552 361.6745587 135.98121937 368.02253723 141.97410583 C370.85198982 144.64272638 373.7297895 147.24563086 376.64753723 149.81785583 C385.16629943 157.43915646 393.43459912 165.54614809 400.82331848 174.27488708 C402.67582631 176.42313895 404.59355547 178.50408441 406.52375793 180.58250427 C412.13626171 186.6309955 417.44560244 192.8586002 422.58503723 199.31785583 C423.20282043 200.08621765 423.20282043 200.08621765 423.83308411 200.87010193 C445.03095306 227.23993215 463.53490603 255.54936027 479.58503723 285.31785583 C480.05554504 286.18507263 480.52605286 287.05228943 481.01081848 287.94578552 C510.84444358 343.14586363 529.68447835 403.82690832 538.39753723 465.88035583 C538.49681519 466.57675171 538.59609314 467.27314758 538.69837952 467.99064636 C541.96155842 491.17965013 542.96544761 514.33239228 542.90289307 537.7328186 C542.89745196 539.8510506 542.89508541 541.96927142 542.89302063 544.08750916 C542.86178789 564.65039586 542.31747906 584.90993092 539.58503723 605.31785583 C539.30312643 607.64459878 539.0218795 609.97142226 538.74128723 612.29832458 C532.47562827 661.82686685 518.73249769 710.67556538 498.58503723 756.31785583 C498.13434875 757.34411072 497.68366028 758.3703656 497.21931458 759.42771912 C477.80904813 803.33205396 452.69762552 844.62553982 422.01618958 881.58250427 C420.74865561 883.11945948 419.50304516 884.67443749 418.26081848 886.23191833 C412.81170754 893.06093352 406.9216737 899.4073773 400.92878723 905.75535583 C398.26016668 908.58480842 395.65726221 911.4626081 393.08503723 914.38035583 C385.4637366 922.89911803 377.35674498 931.16741772 368.62800598 938.55613708 C366.47975411 940.40864491 364.39880866 942.32637408 362.32038879 944.25657654 C356.27189756 949.86908031 350.04429286 955.17842104 343.58503723 960.31785583 C343.07279602 960.7297113 342.56055481 961.14156677 342.03279114 961.56590271 C315.66296092 982.76377167 287.35353279 1001.26772463 257.58503723 1017.31785583 C256.71782043 1017.78836365 255.85060364 1018.25887146 254.95710754 1018.74363708 C199.75702943 1048.57726219 139.07598475 1067.41729695 77.02253723 1076.13035583 C76.32614136 1076.22963379 75.62974548 1076.32891174 74.9122467 1076.43119812 C51.72324294 1079.69437702 28.57050079 1080.69826622 5.17007446 1080.63571167 C3.05184247 1080.63027057 0.93362165 1080.62790401 -1.18461609 1080.62583923 C-21.74750279 1080.59460649 -42.00703785 1080.05029767 -62.41496277 1077.31785583 C-64.74170572 1077.03594504 -67.06852919 1076.7546981 -69.39543152 1076.47410583 C-118.92397378 1070.20844687 -167.77267232 1056.46531629 -213.41496277 1036.31785583 C-214.44121765 1035.86716736 -215.46747253 1035.41647888 -216.52482605 1034.95213318 C-260.42916089 1015.54186674 -301.72264676 990.43044413 -338.67961121 959.74900818 C-340.21656642 958.48147421 -341.77154443 957.23586376 -343.32902527 955.99363708 C-350.15804046 950.54452615 -356.50448423 944.6544923 -362.85246277 938.66160583 C-365.68191536 935.99298529 -368.55971504 933.39008081 -371.47746277 930.81785583 C-379.99622497 923.19655521 -388.26452466 915.08956358 -395.65324402 906.36082458 C-397.50575184 904.21257272 -399.42348101 902.13162726 -401.35368347 900.0532074 C-406.96618724 894.00471617 -412.27552798 887.77711147 -417.41496277 881.31785583 C-417.82681824 880.80561462 -418.23867371 880.29337341 -418.66300964 879.76560974 C-439.8608786 853.39577952 -458.36483156 825.0863514 -474.41496277 795.31785583 C-475.12072449 794.01703064 -475.12072449 794.01703064 -475.84074402 792.68992615 C-505.67436912 737.48984804 -524.51440389 676.80880335 -533.22746277 614.75535583 C-533.32674072 614.05895996 -533.42601868 613.36256409 -533.52830505 612.64506531 C-536.79148395 589.45606154 -537.79537315 566.30331939 -537.7328186 542.90289307 C-537.7273775 540.78466107 -537.72501095 538.66644025 -537.72294617 536.54820251 C-537.69171342 515.98531581 -537.1474046 495.72578075 -534.41496277 475.31785583 C-534.13305197 472.99111289 -533.85180504 470.66428941 -533.57121277 468.33738708 C-527.30555381 418.80884482 -513.56242323 369.96014629 -493.41496277 324.31785583 C-492.96427429 323.29160095 -492.51358582 322.26534607 -492.04924011 321.20799255 C-472.63897367 277.30365771 -447.52755106 236.01017185 -416.84611511 199.0532074 C-415.57858114 197.51625219 -414.33297069 195.96127418 -413.09074402 194.40379333 C-407.64163308 187.57477815 -401.75159923 181.22833437 -395.75871277 174.88035583 C-393.09009222 172.05090325 -390.48718774 169.17310357 -387.91496277 166.25535583 C-380.29366214 157.73659364 -372.18667051 149.46829395 -363.45793152 142.07957458 C-361.30967965 140.22706676 -359.22873419 138.30933759 -357.15031433 136.37913513 C-351.1018231 130.76663136 -344.8742184 125.45729063 -338.41496277 120.31785583 C-337.90272156 119.90600037 -337.39048035 119.4941449 -336.86271667 119.06980896 C-310.49288646 97.87194 -282.18345833 79.36798704 -252.41496277 63.31785583 C-251.54774597 62.84734802 -250.68052917 62.37684021 -249.78703308 61.89207458 C-194.58695497 32.05844948 -133.90591028 13.21841472 -71.85246277 4.50535583 C-71.15606689 4.40607788 -70.45967102 4.30679993 -69.74217224 4.20451355 C-46.55316848 0.94133465 -23.40042633 -0.06255455 0 0 Z " fill="#D6D2E0" transform="translate(537.4149627685547,-0.3178558349609375)"/>
<path d="M0 0 C4.06347916 1.74699532 8.21108368 3.2886358 12.34375 4.86328125 C18.18672268 7.1384994 23.5991737 9.8142667 29 13 C29 13.66 29 14.32 29 15 C29.639375 15.226875 30.27875 15.45375 30.9375 15.6875 C38.22234069 18.80957458 44.54863114 22.87891709 50.625 27.9375 C51.30377197 28.49671143 51.98254395 29.05592285 52.68188477 29.63208008 C75.64781825 48.76283281 97.01170732 71.67371798 108 100 C109.21121739 102.63829531 110.44468712 105.26523039 111.68359375 107.890625 C115.27423965 116.37179453 117.23924003 125.06486637 119.125 134.0625 C119.38925781 135.29033203 119.65351562 136.51816406 119.92578125 137.78320312 C121.78606348 146.55108157 123.13348408 155.02602396 123.2734375 163.99609375 C123.28587494 164.73866928 123.29831238 165.48124481 123.31112671 166.24632263 C123.55240236 184.12456917 122.5525456 200.60373709 118 218 C117.64759092 219.47704553 117.29835606 220.95485403 116.953125 222.43359375 C115.01595191 230.31725307 112.26605481 237.58376727 109 245 C107.98243515 247.54391212 106.98396631 250.09438764 105.9921875 252.6484375 C98.58570363 270.20238745 86.29579642 288.73895335 72.40625 301.73046875 C70.28863138 303.72776813 68.46375962 305.75112488 66.625 308 C61.75803125 313.69963088 55.81265178 318.3069355 50 323 C49.29875 323.5671875 48.5975 324.134375 47.875 324.71875 C43.70715317 327.95242426 39.29782963 330.81873084 34.875 333.6875 C34.28855713 334.0685791 33.70211426 334.4496582 33.09790039 334.84228516 C30.39305909 336.57225419 27.70923277 338.14145433 24.8203125 339.546875 C22.05148737 340.97347188 20.22768373 342.41116833 18 344.5625 C14.05098064 348.18749726 9.91330349 351.38218394 5.5625 354.5 C4.94697266 354.94545166 4.33144531 355.39090332 3.69726562 355.84985352 C-0.74941809 359 -0.74941809 359 -3 359 C-3 359.66 -3 360.32 -3 361 C-4.65 361.33 -6.3 361.66 -8 362 C-8 330.65 -8 299.3 -8 267 C-8.66 267 -9.32 267 -10 267 C-10 267.66 -10 268.32 -10 269 C-12.08778297 270.81402469 -14.18051155 272.51106486 -16.375 274.1875 C-17.33684204 274.9295166 -17.33684204 274.9295166 -18.31811523 275.68652344 C-20.20494407 277.13404432 -22.10019032 278.56957335 -24 280 C-24.89074219 280.67160156 -25.78148437 281.34320312 -26.69921875 282.03515625 C-43.18835421 294 -43.18835421 294 -51 294 C-50.81171228 296.44480079 -50.81171228 296.44480079 -50 299 C-48.67820565 299.68926186 -47.34282029 300.35265473 -46 301 C-44.1484375 302.62109375 -44.1484375 302.62109375 -42.375 304.4375 C-41.78460937 305.03433594 -41.19421875 305.63117188 -40.5859375 306.24609375 C-36.89975406 310.32268578 -36.69371316 313.40283973 -36.67773438 318.64916992 C-36.66283966 319.81561035 -36.66283966 319.81561035 -36.64764404 321.00561523 C-36.61841507 323.58060239 -36.60479737 326.15534288 -36.59375 328.73046875 C-36.58224287 330.52305608 -36.57072746 332.31564336 -36.5592041 334.10823059 C-36.53818614 337.87009832 -36.52650056 341.63188064 -36.51953125 345.39379883 C-36.50858229 350.2014042 -36.46057422 355.00787072 -36.40358734 359.81511974 C-36.36622726 363.52046434 -36.35591767 367.22553808 -36.3528595 370.93105507 C-36.34682591 372.70242834 -36.33083424 374.47379795 -36.30448914 376.24498558 C-36.07296864 393.0117602 -36.07296864 393.0117602 -41.49084473 398.60371399 C-41.98886597 399.06448837 -42.48688721 399.52526276 -43 400 C-43.7425 400.99 -44.485 401.98 -45.25 403 C-45.8275 403.66 -46.405 404.32 -47 405 C-47.66 405 -48.32 405 -49 405 C-49.25007812 405.58910156 -49.50015625 406.17820312 -49.7578125 406.78515625 C-51.16438247 409.29309705 -52.65554334 410.62424578 -54.875 412.4375 C-58.00117697 415.07926036 -60.51034142 417.73768876 -63 421 C-65.5 423.875 -65.5 423.875 -68 426 C-72.01088727 425.80258791 -74.0284494 423.33077686 -76.73828125 420.58984375 C-77.64126953 419.68169922 -78.54425781 418.77355469 -79.47460938 417.83789062 C-79.9414917 417.3606958 -80.40837402 416.88350098 -80.8894043 416.3918457 C-82.29038268 414.960103 -83.70273306 413.53951651 -85.11523438 412.11914062 C-89.78586102 407.39540095 -94.33442192 402.61269919 -98.64916992 397.56079102 C-99.71576255 396.32841678 -100.84753176 395.15246824 -102 394 C-102.25076677 391.42095179 -102.37721201 388.9446436 -102.41748047 386.36010742 C-102.43704803 385.57115082 -102.4566156 384.78219421 -102.47677612 383.96932983 C-102.53677577 381.34811134 -102.57950146 378.72709977 -102.6171875 376.10546875 C-102.63033115 375.20782618 -102.64347481 374.3101836 -102.65701675 373.38533974 C-102.72227683 368.62422621 -102.77113489 363.86320283 -102.81005859 359.10180664 C-102.84553874 355.17728143 -102.91490278 351.25567145 -103.01513672 347.33227539 C-103.13631242 342.58332591 -103.19711215 337.83705526 -103.21640396 333.08663368 C-103.23340617 331.28564599 -103.27078065 329.4847195 -103.3298912 327.68462181 C-103.60139494 318.93794832 -103.69488264 312.03080364 -97.71751595 305.18606281 C-95.24965846 302.66186804 -92.64397352 300.33889294 -90 298 C-89.34 297.01 -88.68 296.02 -88 295 C-88.86238281 294.73445313 -89.72476563 294.46890625 -90.61328125 294.1953125 C-104.35578685 289.34501641 -115.74972284 280.01565507 -126.78515625 270.78515625 C-128.86609916 268.97816189 -128.86609916 268.97816189 -131 268 C-131 299.35 -131 330.7 -131 363 C-136.58635289 361.13788237 -138.74644763 359.85793529 -143 356.125 C-146.85745327 352.75977384 -150.71734462 349.80108811 -155 347 C-156.42877552 345.89041901 -157.84631862 344.76616082 -159.25 343.625 C-162.29256472 341.23043576 -165.33857628 339.12866596 -168.6875 337.1875 C-179.40131816 330.92249902 -188.93817785 323.46086361 -198 315 C-199.39112536 313.78624946 -200.78671325 312.57758747 -202.1875 311.375 C-215.63376848 299.59606881 -227.61165359 284.85161348 -235.9375 268.98046875 C-236.97099647 267.05406173 -238.10954093 265.26172412 -239.3125 263.4375 C-244.92634356 254.5266372 -250.10257796 244.86999549 -252.33203125 234.52734375 C-252.98000196 231.81647845 -252.98000196 231.81647845 -254.4453125 228.68359375 C-256.04836119 224.88541557 -257.13479704 221.12595763 -258.0625 217.125 C-258.22298828 216.48820313 -258.38347656 215.85140625 -258.54882812 215.1953125 C-261.63491468 202.10733097 -262.35460361 188.66811867 -262.31567383 175.27050781 C-262.31250023 173.00016716 -262.33616359 170.73112029 -262.36132812 168.4609375 C-262.40563755 158.0136181 -261.13863975 148.2150878 -259 138 C-258.73550049 136.72817871 -258.47100098 135.45635742 -258.19848633 134.14599609 C-256.97560524 128.41927087 -255.38252839 123.36068888 -253 118 C-252.57138617 116.36116192 -252.16201194 114.7172422 -251.765625 113.0703125 C-250.00395122 106.49766384 -247.24051778 100.59317998 -244.25 94.5 C-243.74984375 93.44941406 -243.2496875 92.39882813 -242.734375 91.31640625 C-237.59107956 80.70179909 -231.40395306 71.16082327 -224 62 C-223.3915625 61.2059375 -222.783125 60.411875 -222.15625 59.59375 C-211.56369455 46.0678715 -199.08097152 33.84647646 -185 24 C-184.41541016 23.5870166 -183.83082031 23.1740332 -183.22851562 22.74853516 C-168.06565939 12.09344622 -152.31814498 4.52945908 -135 -2 C-134.12617676 -2.34015137 -133.25235352 -2.68030273 -132.35205078 -3.03076172 C-125.78428018 -5.52724156 -119.26081909 -7.25221919 -112.375 -8.625 C-111.31941895 -8.83664795 -110.26383789 -9.0482959 -109.17626953 -9.26635742 C-106.12091022 -9.86473157 -103.06268482 -10.4404307 -100 -11 C-99.24976563 -11.13712402 -98.49953125 -11.27424805 -97.7265625 -11.41552734 C-68.60580927 -16.43659107 -25.98292302 -15.86980927 0 0 Z " fill="#28234D" transform="translate(610,364)"/>
<path d="M0 0 C1.0017627 0.22655273 2.00352539 0.45310547 3.03564453 0.68652344 C5.15235737 1.14833982 7.26955023 1.60796131 9.38720703 2.06542969 C10.42393555 2.2898877 11.46066406 2.5143457 12.52880859 2.74560547 C17.50794925 3.78622808 22.51486052 4.64816381 27.53369141 5.47290039 C32.34115096 6.27677665 32.34115096 6.27677665 34.53564453 7.37402344 C34.53564453 8.36402344 34.53564453 9.35402344 34.53564453 10.37402344 C33.4625 10.61185547 33.4625 10.61185547 32.36767578 10.85449219 C25.39008757 12.48831297 18.87882095 14.66210004 12.25048828 17.38574219 C9.53564453 18.37402344 9.53564453 18.37402344 6.53564453 18.37402344 C6.53564453 19.03402344 6.53564453 19.69402344 6.53564453 20.37402344 C5.44251953 20.80714844 4.34939453 21.24027344 3.22314453 21.68652344 C0.44155661 22.86897984 -1.52797486 23.98202386 -3.46435547 26.37402344 C-2.96935547 27.36402344 -2.96935547 27.36402344 -2.46435547 28.37402344 C2.00349991 27.72477485 5.7916259 26.00537207 9.84814453 24.12402344 C17.91720113 20.50884143 26.01078608 17.69880295 34.53564453 15.37402344 C35.21836426 15.17647461 35.90108398 14.97892578 36.60449219 14.77539062 C62.06019361 7.56638318 91.16952588 9.66314177 116.07470703 18.19824219 C118.88753646 19.15384225 121.66289671 19.94686245 124.53564453 20.68652344 C131.92830805 22.84589251 138.7370599 26.82290169 145.53564453 30.37402344 C145.86564453 28.72402344 146.19564453 27.07402344 146.53564453 25.37402344 C139.65545627 21.30207528 132.84569067 18.41463217 125.16455078 16.19824219 C121.60819167 15.08324698 118.19635903 13.68422595 114.76220703 12.24121094 C112.69831278 11.43737844 110.69437048 10.85702605 108.53564453 10.37402344 C108.53564453 9.38402344 108.53564453 8.39402344 108.53564453 7.37402344 C116.08261956 5.1696219 123.5934926 3.5269819 131.34814453 2.24902344 C132.34523438 2.08015625 133.34232422 1.91128906 134.36962891 1.73730469 C136.27487758 1.41532654 138.18069459 1.09668695 140.0871582 0.78198242 C142.00242481 0.46286681 143.91432042 0.12350395 145.82470703 -0.22363281 C148.93283814 -0.68492605 151.95664024 -0.86800598 155.09814453 -0.93847656 C156.19255859 -0.97585938 157.28697266 -1.01324219 158.41455078 -1.05175781 C162.27264069 -0.52543516 163.79167172 0.65853477 166.53564453 3.37402344 C173.87969046 13.424818 176.14932661 25.58407586 178.14135742 37.58178711 C178.37133423 38.95814331 178.37133423 38.95814331 178.60595703 40.36230469 C178.73760254 41.18255127 178.86924805 42.00279785 179.00488281 42.84790039 C179.50184374 45.46588072 179.50184374 45.46588072 180.52197266 48.27075195 C181.58801223 51.53434276 182.16762436 54.64538582 182.68408203 58.03808594 C182.88275879 59.31522461 183.08143555 60.59236328 183.28613281 61.90820312 C183.38798889 62.57605835 183.48984497 63.24391357 183.5947876 63.93200684 C185.20920322 74.49699226 186.96391985 85.00976653 189.15185547 95.47314453 C190.48818181 101.92932243 191.54756533 108.41166215 192.49707031 114.93554688 C193.02886834 118.51309726 193.65593858 121.98540834 194.58251953 125.48339844 C195.52978593 129.10935856 195.92644772 132.62687442 196.16064453 136.37402344 C196.27279297 138.07558594 196.27279297 138.07558594 196.38720703 139.81152344 C196.46068359 141.07996094 196.46068359 141.07996094 196.53564453 142.37402344 C197.19564453 142.37402344 197.85564453 142.37402344 198.53564453 142.37402344 C199.04376567 144.8934574 199.54228987 147.41419217 200.03564453 149.93652344 C200.17873047 150.64099609 200.32181641 151.34546875 200.46923828 152.07128906 C202.70325797 163.6137241 202.70325797 163.6137241 199.48095703 168.47167969 C198.56298405 169.48055098 197.62147116 170.46837683 196.66064453 171.43652344 C196.15742676 171.95891602 195.65420898 172.48130859 195.13574219 173.01953125 C190.72542615 177.45341704 186.1662593 180.62937766 180.53564453 183.37402344 C179.86065918 183.70418457 179.18567383 184.0343457 178.49023438 184.37451172 C161.72843892 192.52860446 161.72843892 192.52860446 153.53564453 192.37402344 C153.50822542 190.83245984 153.48906205 189.2907487 153.47314453 187.74902344 C153.46154297 186.89050781 153.44994141 186.03199219 153.43798828 185.14746094 C153.53564453 182.37402344 153.53564453 182.37402344 154.03564453 179.56152344 C154.64573313 175.6722086 154.64431245 171.92684765 154.59814453 167.99902344 C154.59137695 166.89494141 154.59137695 166.89494141 154.58447266 165.76855469 C154.57279595 163.97034186 154.55486464 162.17217146 154.53564453 160.37402344 C152.30744878 159.46639969 152.30744878 159.46639969 149.53564453 159.37402344 C146.7506926 161.16760489 146.7506926 161.16760489 144.16064453 163.81152344 C143.26603516 164.65585937 142.37142578 165.50019531 141.44970703 166.37011719 C139.31491762 168.51094944 137.33368226 170.74668486 135.36816406 173.04321289 C131.52953282 177.4461014 127.45404805 181.56597985 123.30126953 185.67089844 C122.16150665 186.80498138 122.16150665 186.80498138 120.99871826 187.9619751 C118.59679557 190.35179026 116.19163908 192.73830819 113.78564453 195.12402344 C110.60046447 198.28259169 107.41862449 201.44447028 104.23876953 204.60839844 C103.51063049 205.32823914 102.78249146 206.04807983 102.0322876 206.78973389 C101.01542877 207.80163788 101.01542877 207.80163788 99.97802734 208.83398438 C99.38403137 209.42274353 98.7900354 210.01150269 98.17803955 210.61810303 C96.45788817 212.3807019 96.45788817 212.3807019 94.94549561 214.59527588 C94.48024475 215.18226257 94.0149939 215.76924927 93.53564453 216.37402344 C92.87564453 216.37402344 92.21564453 216.37402344 91.53564453 216.37402344 C91.53564453 209.44402344 91.53564453 202.51402344 91.53564453 195.37402344 C78.00564453 195.37402344 64.47564453 195.37402344 50.53564453 195.37402344 C50.53564453 202.30402344 50.53564453 209.23402344 50.53564453 216.37402344 C46.49154304 214.35197269 44.24915222 212.12271249 41.34814453 208.81152344 C37.88018667 204.9329631 34.37277261 201.14897181 30.66064453 197.49902344 C28.28969658 195.1658428 26.03826775 192.85615574 23.97314453 190.24902344 C22.00476207 187.92734156 20.2037818 186.17528777 17.89892578 184.23730469 C13.38292419 180.32791487 9.3349584 176.07071402 5.28564453 171.68652344 C3.90595268 170.20297003 2.52576041 168.71988182 1.14501953 167.23730469 C0.54657227 166.59059814 -0.051875 165.9438916 -0.66845703 165.27758789 C-1.26110352 164.64941162 -1.85375 164.02123535 -2.46435547 163.37402344 C-3.48094238 162.27223755 -3.48094238 162.27223755 -4.51806641 161.14819336 C-6.36734729 159.10372195 -6.36734729 159.10372195 -9.21435547 159.12402344 C-9.95685547 159.20652344 -10.69935547 159.28902344 -11.46435547 159.37402344 C-11.72376104 170.88874862 -11.06318273 181.96810395 -9.46435547 193.37402344 C-25.5928772 191.50916311 -43.81244856 183.65899671 -55.02685547 171.62402344 C-60.03469484 163.78566616 -57.61088519 151.19843762 -56.46435547 142.37402344 C-55.85675065 140.02461814 -55.19306019 137.68873256 -54.46435547 135.37402344 C-53.01521578 129.04611347 -51.96962228 122.62878498 -50.85131836 116.23632812 C-49.54669662 108.79626578 -48.20685327 101.36262644 -46.85949707 93.9302063 C-46.6004354 92.50018507 -46.34187272 91.07007333 -46.0838623 89.63986206 C-44.7376883 82.18005221 -43.3636327 74.72620608 -41.90185547 67.28808594 C-41.55960937 65.54325928 -41.55960937 65.54325928 -41.21044922 63.76318359 C-40.43711489 60.25028206 -39.46483124 56.82814537 -38.46435547 53.37402344 C-37.9189131 50.33621245 -37.47107215 47.29520062 -37.02685547 44.24121094 C-36.46435547 41.37402344 -36.46435547 41.37402344 -35.48779297 38.98339844 C-34.17926597 35.64715403 -33.66496256 32.26620429 -33.08935547 28.74902344 C-31.18822864 17.9821239 -28.39848684 8.65239654 -20.77685547 0.49902344 C-14.4096243 -3.58561543 -7.02443285 -1.52720315 0 0 Z " fill="#FCFBFB" transform="translate(469.46435546875,418.6259765625)"/>
<path d="M0 0 C-1.36277515 3.62537314 -3.00941956 6.89425695 -4.9375 10.25 C-7.29579322 14.49033745 -9.0435196 18.55811757 -10.359375 23.22265625 C-11 25 -11 25 -13 27 C-13.71927295 29.31765729 -14.3909893 31.65095874 -15 34 C-15.82238159 34.10489746 -15.82238159 34.10489746 -16.66137695 34.21191406 C-26.85590167 35.54251828 -36.51848317 36.83454099 -46 41 C-48.229115 41.9167923 -50.45828227 42.83345752 -52.6875 43.75 C-54.4593969 44.49748383 -56.23063117 45.24655149 -58 46 C-58 46.66 -58 47.32 -58 48 C-46.82974562 54.28708307 -36.01821335 59.99859897 -23 61 C-22.84293182 65.31937482 -22.90906087 69.05113621 -23.99121094 73.24145508 C-25.04300702 77.78451636 -25.29103291 82.04979314 -25.265625 86.69921875 C-25.26849518 87.89548637 -25.26849518 87.89548637 -25.27142334 89.11592102 C-25.27277437 90.79237181 -25.26915427 92.46883345 -25.26074219 94.14526367 C-25.25009867 96.66414893 -25.26063765 99.18230941 -25.2734375 101.70117188 C-25.27979088 110.30714384 -24.90465117 118.53478251 -23.42871094 127.03051758 C-22.99103139 130.06212139 -22.92802787 132.94147025 -23 136 C-24.2375 136.268125 -25.475 136.53625 -26.75 136.8125 C-28.50004925 137.20811553 -30.2500444 137.60397044 -32 138 C-32.96292969 138.20625 -33.92585937 138.4125 -34.91796875 138.625 C-41.8544258 140.20432269 -47.79344519 142.52597707 -54 146 C-45.81913582 152.9413393 -36.46049952 157.106527 -25.73828125 158.390625 C-22.3723238 158.84673969 -19.98438933 159.3581457 -17 161 C-14.21946815 165.02049876 -12.57155626 169.21887859 -10.87255859 173.77978516 C-9.32211014 177.72488258 -7.41625735 181.50308572 -5.5625 185.3125 C-2 192.69150204 -2 192.69150204 -2 195 C-16.8194886 193.40243811 -30.32837969 190.12162103 -44 184 C-45.23358561 183.46691957 -46.4680059 182.93576773 -47.703125 182.40625 C-57.57407718 178.15854929 -67.29957504 173.62210843 -77 169 C-77 168.34 -77 167.68 -77 167 C-78.0979187 166.81207886 -78.0979187 166.81207886 -79.21801758 166.62036133 C-81.88140113 166.02644666 -84.04277177 165.21735317 -86.51171875 164.07421875 C-87.35283203 163.68943359 -88.19394531 163.30464844 -89.06054688 162.90820312 C-89.92744141 162.50537109 -90.79433594 162.10253906 -91.6875 161.6875 C-97.72389743 158.90111731 -103.75568971 156.24949465 -109.97973633 153.90551758 C-112 153 -112 153 -114 151 C-116.06228123 150.5531724 -118.1260304 150.11241406 -120.1953125 149.69921875 C-123.46036198 148.88523009 -126.48680539 147.71329293 -129.625 146.5 C-149.61143655 139.31505621 -174.54835743 139.64245249 -195 145 C-196.01578125 145.25136719 -197.0315625 145.50273438 -198.078125 145.76171875 C-202.41561829 146.93284194 -204.84677068 147.79658666 -208 151 C-209.796875 151.80859375 -209.796875 151.80859375 -211.75 152.4375 C-214.53947671 153.41152203 -217.02160315 154.49152173 -219.5625 156 C-222.35540241 157.6249614 -225.05032009 158.86152227 -228.03125 160.07421875 C-231.47331656 161.69280957 -234.64783152 163.76915582 -237.86328125 165.79296875 C-240 167 -240 167 -242 167 C-241.45618406 162.39914447 -239.45019821 159.09479391 -236.9375 155.3125 C-236.5355542 154.69818115 -236.1336084 154.0838623 -235.71948242 153.45092773 C-232.1258497 148.03612582 -228.18273983 142.97261344 -224 138 C-223.52304688 137.38898438 -223.04609375 136.77796875 -222.5546875 136.1484375 C-218.11097001 130.58744247 -212.58466236 126.3647503 -207 122 C-205.83791016 121.07380859 -205.83791016 121.07380859 -204.65234375 120.12890625 C-199.50399892 116.1160842 -199.50399892 116.1160842 -196.96484375 115.53125 C-194.54173093 114.87609425 -193.73440509 113.77842552 -192 112 C-190.4833538 111.20061247 -188.93795198 110.45456883 -187.375 109.75 C-180.3551478 106.35296626 -174.30904118 101.71475393 -169 96 C-168.2127322 93.8618034 -168.2127322 93.8618034 -168 92 C-169.74216797 92.03867187 -169.74216797 92.03867187 -171.51953125 92.078125 C-182.90508542 92.06811352 -194.29631109 88.61066219 -205 85 C-205 83.68 -205 82.36 -205 81 C-202.87779551 79.23921898 -200.88699555 77.82276274 -198.5625 76.375 C-197.89379883 75.94477539 -197.22509766 75.51455078 -196.53613281 75.07128906 C-189.42724762 70.54147189 -182.17123332 66.25060385 -174.85546875 62.06494141 C-173.30290649 61.17385238 -171.75964351 60.26658696 -170.21875 59.35546875 C-157.73751188 52.18665635 -144.01189667 47.01721494 -130.51879883 42.08886719 C-125.50077143 40.23821105 -120.70777328 38.06007018 -115.87890625 35.76953125 C-107.72065954 31.97849108 -99.32994319 28.67614373 -91.0144043 25.2487793 C-88.91657247 24.37970909 -86.82189968 23.5029903 -84.72973633 22.62036133 C-83.66907959 22.17329834 -82.60842285 21.72623535 -81.515625 21.265625 C-80.55817383 20.85989258 -79.60072266 20.45416016 -78.61425781 20.03613281 C-76.3552208 19.14078792 -74.15994578 18.42586102 -71.8125 17.8125 C-70.884375 17.544375 -69.95625 17.27625 -69 17 C-68.67 16.34 -68.34 15.68 -68 15 C-66.30444336 14.19384766 -66.30444336 14.19384766 -64.08984375 13.4140625 C-63.27314209 13.1250708 -62.45644043 12.8360791 -61.61499023 12.53833008 C-60.73141846 12.23693115 -59.84784668 11.93553223 -58.9375 11.625 C-58.03008057 11.31264404 -57.12266113 11.00028809 -56.18774414 10.6784668 C-48.89865894 8.2146498 -41.60576802 6.14314005 -34.09082031 4.46923828 C-31.80315028 3.95582144 -29.52332411 3.41276067 -27.2421875 2.87109375 C-17.99602073 0.73686953 -9.53266358 -0.6161147 0 0 Z " fill="#29244E" transform="translate(348,437)"/>
<path d="M0 0 C24.93225833 -0.47182561 50.14477823 6.5388389 72.29296875 17.65234375 C74.48028845 18.74126914 76.57273481 19.6420822 78.875 20.4375 C81.68077401 21.45439343 84.29322331 22.61740602 86.9375 24 C91.13770686 26.17108108 95.48669948 27.62093595 100 29 C100 29.66 100 30.32 100 31 C101.03125 31.0825 102.0625 31.165 103.125 31.25 C107.34563969 32.066898 109.5368254 33.53729806 113 36 C115.22602615 36.76939681 115.22602615 36.76939681 117 37 C117 37.66 117 38.32 117 39 C117.66644531 39.17015625 118.33289063 39.3403125 119.01953125 39.515625 C124.81110148 41.03844347 130.42495893 42.7921721 136.03125 44.89453125 C140.57467497 46.58635923 145.15922507 48.16141807 149.73828125 49.75390625 C152.94881777 50.98044655 155.95502323 52.41071561 159 54 C159 54.66 159 55.32 159 56 C159.54527344 56.16000488 160.09054687 56.32000977 160.65234375 56.48486328 C166.54119854 58.31569314 171.67208426 60.79479871 177 63.875 C177.7425 64.29652344 178.485 64.71804688 179.25 65.15234375 C180.7419885 65.99935805 182.23160992 66.85055641 183.71875 67.70605469 C185.3127922 68.61020962 186.91802798 69.49478591 188.53125 70.36425781 C189.75328125 71.02312988 189.75328125 71.02312988 191 71.6953125 C191.7425 72.08992676 192.485 72.48454102 193.25 72.89111328 C195 74 195 74 196 76 C198.02463255 76.65213292 198.02463255 76.65213292 200 77 C200 77.66 200 78.32 200 79 C200.598125 79.268125 201.19625 79.53625 201.8125 79.8125 C203.98316883 80.99086308 205.30817212 82.23060981 207 84 C193.08928571 89.36904762 193.08928571 89.36904762 187 89 C187 89.66 187 90.32 187 91 C183.13276369 92.26582219 179.26848738 92.1118765 175.25 92.0625 C174.55261719 92.05798828 173.85523438 92.05347656 173.13671875 92.04882812 C171.42444197 92.0371002 169.71220967 92.01916653 168 92 C170.60052107 101.10182375 178.28724919 104.53496592 186.125 108.9375 C187.41355153 109.63082098 188.70400344 110.32069746 190 111 C190 111.66 190 112.32 190 113 C192.97 113.99 195.94 114.98 199 116 C199 116.66 199 117.32 199 118 C199.73347656 118.26296875 200.46695313 118.5259375 201.22265625 118.796875 C217.68866421 125.92982922 230.25870583 144.08418032 239 159 C239.3928418 159.65629395 239.78568359 160.31258789 240.19042969 160.98876953 C243 165.75469709 243 165.75469709 243 168 C239.7674689 167.36659864 237.51297115 166.21024547 234.75 164.4375 C229.57510666 161.24350055 224.21977261 158.57161394 218.76269531 155.90551758 C215.19948305 154.14977484 211.80658947 152.34028425 208.5 150.125 C204.79074497 147.68212059 201.34118981 146.91024948 197 146 C196.071875 145.67 195.14375 145.34 194.1875 145 C184.69778102 142.02283326 175.26245171 141.64427959 165.375 141.6875 C164.7145871 141.68932281 164.05417419 141.69114563 163.37374878 141.69302368 C145.95742097 141.77386085 128.20234217 143.85919777 113 153 C111.03675557 153.73172964 109.0550282 154.41474362 107.0625 155.0625 C100.46639342 157.36103767 94.11450299 160.06132192 87.75 162.9375 C86.84000244 163.34427979 85.93000488 163.75105957 84.99243164 164.17016602 C79.50257653 166.67965779 74.38928899 169.52450281 69.25048828 172.68579102 C66.45416498 174.31874917 63.62184016 175.44971937 60.5625 176.5 C56.29804965 178.04935054 52.47428613 179.76720196 48.5625 182.0625 C43.25904211 185.10085806 37.87476059 186.65105596 31.96875 188.140625 C28.85136617 188.88136314 28.85136617 188.88136314 26 191 C23.88696289 191.59423828 23.88696289 191.59423828 21.47265625 192.0703125 C20.59802734 192.24433594 19.72339844 192.41835938 18.82226562 192.59765625 C17.91154297 192.77167969 17.00082031 192.94570313 16.0625 193.125 C14.7022168 193.39763672 14.7022168 193.39763672 13.31445312 193.67578125 C9.42085441 194.43788372 5.99045281 195 2 195 C2.62222354 192.21100174 3.47096859 189.7808807 4.70703125 187.20703125 C5.04468506 186.49828857 5.38233887 185.7895459 5.73022461 185.05932617 C6.26595093 183.94714722 6.26595093 183.94714722 6.8125 182.8125 C7.53966528 181.28414081 8.26623367 179.75549748 8.9921875 178.2265625 C9.33991211 177.49598633 9.68763672 176.76541016 10.04589844 176.01269531 C11.19872403 173.58078789 12.33000826 171.14038912 13.4375 168.6875 C13.72496094 168.05199219 14.01242187 167.41648437 14.30859375 166.76171875 C15.05243844 164.86638566 15.52212756 162.97713016 16 161 C19.12430761 160.33006007 22.24955386 159.66460636 25.375 159 C26.26445313 158.80921875 27.15390625 158.6184375 28.0703125 158.421875 C28.92109375 158.24140625 29.771875 158.0609375 30.6484375 157.875 C31.43395996 157.70742188 32.21948242 157.53984375 33.02880859 157.3671875 C35 157 35 157 37 157 C37 156.34 37 155.68 37 155 C39.62309099 153.82887054 42.24828142 152.66294036 44.875 151.5 C45.62136719 151.16613281 46.36773438 150.83226562 47.13671875 150.48828125 C48.20986328 150.01455078 48.20986328 150.01455078 49.3046875 149.53125 C49.96452637 149.23798828 50.62436523 148.94472656 51.30419922 148.64257812 C53 148 53 148 55 148 C47.45800824 139.60923103 33.48810674 137.71144674 23 135 C23.144375 133.97648438 23.28875 132.95296875 23.4375 131.8984375 C25.88662493 112.88939308 26.62994057 92.89999843 23.4453125 73.94921875 C22.79217447 69.62361159 22.81525605 65.36200987 23 61 C23.72960937 60.87625 24.45921875 60.7525 25.2109375 60.625 C36.28817799 58.43690311 47.56040801 54.29306133 57 48 C57.33 47.01 57.66 46.02 58 45 C56.14375 44.4121875 56.14375 44.4121875 54.25 43.8125 C50.59613076 42.61525073 47.17720366 41.17084137 43.6875 39.5625 C37.23649319 36.78823282 30.6480138 35.55100434 23.76635742 34.34399414 C22.93467041 34.19567139 22.1029834 34.04734863 21.24609375 33.89453125 C20.50029053 33.76925049 19.7544873 33.64396973 18.98608398 33.51489258 C17 33 17 33 14 31 C13.18359375 29.28515625 13.18359375 29.28515625 12.4375 27.0625 C10.00758315 20.54110259 6.66577906 14.53051191 3.35327148 8.42602539 C2.92216064 7.62543701 2.4910498 6.82484863 2.046875 6 C1.65338867 5.278125 1.25990234 4.55625 0.85449219 3.8125 C0 2 0 2 0 0 Z " fill="#29244D" transform="translate(733,437)"/>
<path d="M0 0 C0 27.72 0 55.44 0 84 C-4.455 84.495 -4.455 84.495 -9 85 C-9 85.66 -9 86.32 -9 87 C-11.24886238 87.50509208 -13.49913869 88.00389179 -15.75 88.5 C-17.00296875 88.7784375 -18.2559375 89.056875 -19.546875 89.34375 C-23 90 -23 90 -27 90 C-27 74.49 -27 58.98 -27 43 C-27.99 42.67 -28.98 42.34 -30 42 C-31.6484375 40.328125 -31.6484375 40.328125 -33.375 38.25 C-35.47091834 35.76248758 -37.55778865 33.40449605 -39.9375 31.1875 C-42 29 -42 29 -42 26 C-41.42894531 25.8040625 -40.85789062 25.608125 -40.26953125 25.40625 C-26.2361255 20.23017665 -14.65303158 11.06664246 -3.1875 1.703125 C-1 0 -1 0 0 0 Z " fill="#FBFBFB" transform="translate(601,632)"/>
<path d="M0 0 C3.56365324 2.13819194 6.23059185 3.99367911 9.24926758 6.71850586 C19.03642154 15.52434593 30.2833857 21.18720689 42 27 C40.55129769 30.03683097 39.14084044 32.05765404 36.6875 34.375 C35.436813 35.56104475 34.21027604 36.77274614 33 38 C32.14937988 38.81114258 31.29875977 39.62228516 30.42236328 40.45800781 C26.89978336 44.74028069 27.27147338 49.31797212 27.29296875 54.6484375 C27.27784744 55.66096588 27.26272614 56.67349426 27.24714661 57.71670532 C27.20431373 60.93636421 27.19543556 64.15508473 27.1875 67.375 C27.16435237 69.56382695 27.13898649 71.75263165 27.11132812 73.94140625 C27.04851968 79.29427978 27.01355038 84.64678728 27 90 C25.12330305 89.7630748 23.24872678 89.50937029 21.375 89.25 C20.33085937 89.11078125 19.28671875 88.9715625 18.2109375 88.828125 C12.04893551 87.61630272 6.03839961 85.72525703 0 84 C0 56.28 0 28.56 0 0 Z " fill="#FCFBFB" transform="translate(480,632)"/>
<path d="M0 0 C1.175625 -0.01675781 2.35125 -0.03351562 3.5625 -0.05078125 C8.29322191 0.44917004 11.70731792 1.84746031 14.875 5.4375 C17.73957753 12.75808702 15.7775938 19.97401965 13.40234375 27.2265625 C11.57291596 31.25232282 9.23131974 33.72701465 5.93359375 36.61328125 C3.76819651 38.40276332 3.76819651 38.40276332 1.625 41.4375 C-4.90174064 48.58583499 -14.15436655 52.81565183 -23.72265625 53.62890625 C-33.9157644 54.01785217 -33.9157644 54.01785217 -37.828125 51.47265625 C-40.79748519 48.51931778 -42.2983779 46.48074223 -42.375 42.3125 C-42.0690066 31.2067394 -36.19367441 21.62479014 -28.60546875 13.86328125 C-20.04650078 5.90909443 -12.06633232 0.03969188 0 0 Z " fill="#2A264E" transform="translate(599,527.6875)"/>
<path d="M0 0 C12.72122018 6.03549372 24.88428703 16.24718685 30.90625 29.19140625 C32.70925542 34.85459067 33.41418944 41.56178664 30.80078125 47.06640625 C28.03291775 50.58210865 24.83920995 52.65203343 20.453125 53.34765625 C8.57088426 53.65141278 -2.35032713 48.79585547 -11.20703125 40.9765625 C-18.20703125 33.30929631 -18.20703125 33.30929631 -18.20703125 29.9765625 C-18.86703125 29.9765625 -19.52703125 29.9765625 -20.20703125 29.9765625 C-24.78643271 21.39284721 -24.78643271 21.39284721 -25.20703125 16.9765625 C-25.33658203 15.84734375 -25.33658203 15.84734375 -25.46875 14.6953125 C-25.80315912 9.76092016 -25.59939062 6.76970556 -22.33203125 2.9140625 C-16.52972437 -3.04241196 -7.56415901 -2.41389727 0 0 Z " fill="#29244D" transform="translate(492.20703125,529.0234375)"/>
<path d="M0 0 C1.14726563 0.12117187 2.29453125 0.24234375 3.4765625 0.3671875 C5.22066406 0.58761719 5.22066406 0.58761719 7 0.8125 C8.58941406 1.00199219 8.58941406 1.00199219 10.2109375 1.1953125 C17.25221168 2.15153492 23.97466693 3.77877466 30.8125 5.69140625 C33.79703692 6.51287134 36.79040173 7.23229388 39.8125 7.90234375 C53.25953493 10.89598462 66.07682362 15.05170332 79 19.8125 C79 20.1425 79 20.4725 79 20.8125 C78.27224365 20.82708252 77.5444873 20.84166504 76.79467773 20.85668945 C50.48856801 21.44090267 26.31887779 24.68596804 0.87573242 31.37060547 C-9.81971546 33.89029318 -19.15075259 26.91409225 -27.8828125 21.55859375 C-30.19159974 19.65448324 -30.68012757 18.73613399 -31 15.8125 C-30.34 15.8125 -29.68 15.8125 -29 15.8125 C-29 15.1525 -29 14.4925 -29 13.8125 C-27.42700195 12.62329102 -27.42700195 12.62329102 -25.23828125 11.31640625 C-24.44873047 10.84009766 -23.65917969 10.36378906 -22.84570312 9.87304688 C-21.59176758 9.13151367 -21.59176758 9.13151367 -20.3125 8.375 C-19.49587891 7.88451172 -18.67925781 7.39402344 -17.83789062 6.88867188 C-16.25489918 5.93887701 -14.6679228 4.99568592 -13.07666016 4.05981445 C-11.44674681 3.0808317 -9.86019942 2.02960667 -8.29296875 0.953125 C-5.28213335 -0.54459891 -3.32661552 -0.3534529 0 0 Z " fill="#F7F7F8" transform="translate(809,520.1875)"/>
<path d="M0 0 C0.48726563 0.41894531 0.97453125 0.83789062 1.4765625 1.26953125 C4.03086511 3.29476895 6.54488152 4.96644208 9.4140625 6.51953125 C16.31486525 10.29117689 16.31486525 10.29117689 19.6640625 12.20703125 C20.51097656 12.68398438 21.35789062 13.1609375 22.23046875 13.65234375 C22.84792969 14.12414062 23.46539062 14.5959375 24.1015625 15.08203125 C24.1015625 16.07203125 24.1015625 17.06203125 24.1015625 18.08203125 C21.5858254 19.54979623 19.06457268 21.0062536 16.5390625 22.45703125 C15.83458984 22.86953125 15.13011719 23.28203125 14.40429688 23.70703125 C11.01853708 25.64175113 7.93601707 27.24566322 4.13671875 28.18359375 C3.13511719 28.48007812 2.13351562 28.7765625 1.1015625 29.08203125 C0.6065625 30.56703125 0.6065625 30.56703125 0.1015625 32.08203125 C-5.55579165 33.63780364 -8.69510616 32.32484648 -13.8984375 30.08203125 C-13.8984375 29.42203125 -13.8984375 28.76203125 -13.8984375 28.08203125 C-15.1359375 27.97890625 -16.3734375 27.87578125 -17.6484375 27.76953125 C-21.42487635 27.35648325 -24.97583775 26.61151895 -28.6484375 25.64453125 C-47.66500746 20.70359736 -67.38446487 20.76155711 -86.8984375 20.08203125 C-85.8984375 18.08203125 -85.8984375 18.08203125 -82.2578125 16.86328125 C-80.72355639 16.428353 -79.18695734 16.00162757 -77.6484375 15.58203125 C-72.95048829 14.27484471 -68.42562412 12.90537319 -63.8984375 11.08203125 C-62.22123461 10.6633766 -60.53272565 10.28747222 -58.8359375 9.95703125 C-57.99933594 9.78945313 -57.16273438 9.621875 -56.30078125 9.44921875 C-53.8984375 9.08203125 -53.8984375 9.08203125 -49.8984375 9.08203125 C-49.8984375 8.42203125 -49.8984375 7.76203125 -49.8984375 7.08203125 C-48.91617188 6.91767578 -48.91617188 6.91767578 -47.9140625 6.75 C-42.99379999 5.89520863 -38.16333605 4.92733646 -33.3359375 3.64453125 C-28.1209936 2.30666606 -22.88994518 1.29735256 -17.5859375 0.39453125 C-16.83304443 0.26312744 -16.08015137 0.13172363 -15.30444336 -0.00366211 C-3.89463275 -1.88320719 -3.89463275 -1.88320719 0 0 Z " fill="#F7F7F8" transform="translate(279.8984375,520.91796875)"/>
<path d="M0 0 C0.66 0 1.32 0 2 0 C2 0.99 2 1.98 2 3 C3.010625 3.103125 4.02125 3.20625 5.0625 3.3125 C8.43613867 3.90154802 10.99861161 4.76456513 14.078125 6.1953125 C16.20959527 7.08775737 18.32908497 7.6588019 20.5625 8.25 C25.14663865 9.57289186 29.30319076 11.44614046 33.5625 13.5625 C34.18261963 13.86768555 34.80273926 14.17287109 35.44165039 14.48730469 C39.87255247 16.74510494 39.87255247 16.74510494 41 19 C40.0625 21.125 40.0625 21.125 39 23 C35.0296864 22.41550141 32.25066139 21.16656703 28.8125 19.125 C24.55393688 16.74088421 20.60198167 15.05347076 15.90234375 13.7890625 C12.02600418 12.73519898 8.205488 11.52091024 4.375 10.3125 C2.96620376 9.87090892 1.55735417 9.42948795 0.1484375 8.98828125 C-0.89054688 8.66214844 -1.92953125 8.33601563 -3 8 C-2.01 7.34 -1.02 6.68 0 6 C0.2502157 2.91634129 0.2502157 2.91634129 0 0 Z " fill="#423C58" transform="translate(576,426)"/>
<path d="M0 0 C0 1.32 0 2.64 0 4 C3.63 3.67 7.26 3.34 11 3 C11 3.33 11 3.66 11 4 C9.79730469 4.22042969 9.79730469 4.22042969 8.5703125 4.4453125 C-5.40195534 7.20174629 -18.72387733 11.46230886 -31.3984375 17.99609375 C-34 19 -34 19 -36.2890625 18.84765625 C-36.85367187 18.56792969 -37.41828125 18.28820312 -38 18 C-38.33 17.01 -38.66 16.02 -39 15 C-37.92570402 14.15504811 -36.84010798 13.32445142 -35.75 12.5 C-35.14671875 12.0359375 -34.5434375 11.571875 -33.921875 11.09375 C-32 10 -32 10 -28 10 C-28 9.34 -28 8.68 -28 8 C-24.96165799 6.8452141 -21.91880147 5.70280979 -18.875 4.5625 C-18.0190625 4.23701172 -17.163125 3.91152344 -16.28125 3.57617188 C-10.83512118 1.54434689 -5.87306785 0 0 0 Z " fill="#4E4963" transform="translate(504,429)"/>
<path d="M0 0 C0 0.33 0 0.66 0 1 C-0.98871094 0.9278125 -1.97742188 0.855625 -2.99609375 0.78125 C-24.84062697 -0.6579795 -47.1765506 -0.86582163 -69 1 C-69 0.67 -69 0.34 -69 0 C-46.33817559 -3.95757433 -22.5254212 -5.54878411 0 0 Z " fill="#5C5776" transform="translate(574,354)"/>
<path d="M0 0 C0.66 0 1.32 0 2 0 C2 0.99 2 1.98 2 3 C3.093125 3.12375 4.18625 3.2475 5.3125 3.375 C9 4 9 4 12 6 C11.34 6 10.68 6 10 6 C9.67 7.32 9.34 8.64 9 10 C9.66 10.33 10.32 10.66 11 11 C6.13103697 10.40380045 1.67209049 9.43023178 -3 8 C-2.01 7.34 -1.02 6.68 0 6 C0.2502157 2.91634129 0.2502157 2.91634129 0 0 Z " fill="#46425E" transform="translate(576,426)"/>
<path d="M0 0 C0.66 0.33 1.32 0.66 2 1 C0.71937515 2.7074998 -0.61767557 4.37373596 -2 6 C-2.66 6 -3.32 6 -4 6 C-3.34 12.6 -2.68 19.2 -2 26 C-2.66 25.67 -3.32 25.34 -4 25 C-5.89983514 19.1949482 -7.18274316 13.08127107 -6 7 C-4.32774611 4.27286502 -2.37353275 2.13335384 0 0 Z " fill="#544F66" transform="translate(473,529)"/>
<path d="M0 0 C0.66 0.33 1.32 0.66 2 1 C0.98446121 3.67732953 0.34380719 4.8088603 -2.19921875 6.22265625 C-5.82577214 8.52402555 -8.31214964 11.41231804 -11.125 14.625 C-16.5998731 20.86662437 -16.5998731 20.86662437 -20 22 C-18.51346494 18.53370165 -16.54277649 16.30977964 -13.8671875 13.671875 C-12.65869141 12.47304688 -12.65869141 12.47304688 -11.42578125 11.25 C-10.58402344 10.425 -9.74226563 9.6 -8.875 8.75 C-8.02550781 7.90953125 -7.17601562 7.0690625 -6.30078125 6.203125 C-4.20495077 4.13084317 -2.10459287 2.06337607 0 0 Z " fill="#4B4769" transform="translate(412,398)"/>
<path d="M0 0 C0.33 0 0.66 0 1 0 C1.4375 2.0625 1.4375 2.0625 1 5 C-1.07017366 7.62982691 -3.36690452 9.93284133 -6 12 C-6.66 12 -7.32 12 -8 12 C-8 12.66 -8 13.32 -8 14 C-8.66 14 -9.32 14 -10 14 C-8.63079505 9.96407129 -6.80419512 7.32473622 -3.9375 4.1875 C-3.22464844 3.39730469 -2.51179687 2.60710938 -1.77734375 1.79296875 C-1.19082031 1.20128906 -0.60429688 0.60960937 0 0 Z " fill="#49445F" transform="translate(572,540)"/>
<path d="M0 0 C4.23092172 -0.36265043 6.62637846 0.39749195 10 3 C10 3.99 10 4.98 10 6 C8.54119891 5.85892253 7.08296449 5.71197585 5.625 5.5625 C4.40683594 5.44068359 4.40683594 5.44068359 3.1640625 5.31640625 C1 5 1 5 -1 4 C-0.67 2.68 -0.34 1.36 0 0 Z " fill="#2F2A4A" transform="translate(586,432)"/>
<path d="M0 0 C0.75 1.6875 0.75 1.6875 1 4 C-1.64296966 8.12303267 -5.03390377 11.19068184 -9 14 C-11.1875 13.6328125 -11.1875 13.6328125 -13 13 C-12.22914063 12.31292969 -11.45828125 11.62585938 -10.6640625 10.91796875 C-9.65088582 10.00798599 -8.63787357 9.09782013 -7.625 8.1875 C-7.11710938 7.73568359 -6.60921875 7.28386719 -6.0859375 6.81835938 C-3.67827204 4.64829248 -1.80938139 2.71407209 0 0 Z " fill="#514C65" transform="translate(669,585)"/>
<path d="M0 0 C3.63 0 7.26 0 11 0 C10.67 0.66 10.34 1.32 10 2 C7.4375 2.625 7.4375 2.625 5 3 C4.67 4.65 4.34 6.3 4 8 C2 6.25 2 6.25 0 4 C0 2.68 0 1.36 0 0 Z " fill="#C5C3DA" transform="translate(901,529)"/>
<path d="M0 0 C-0.98093954 2.45234885 -1.68703828 3.7809268 -3.875 5.3125 C-6.40012982 6.12945377 -7.58458353 6.0827729 -10 5 C-10.33 4.01 -10.66 3.02 -11 2 C-7.17010894 0.19769832 -4.21878192 -0.19622241 0 0 Z " fill="#332F47" transform="translate(476,442)"/>
<path d="M0 0 C0.66 0.33 1.32 0.66 2 1 C1.01 1.33 0.02 1.66 -1 2 C-0.2236068 5.0745356 -0.2236068 5.0745356 2 7 C0.02 7.66 -1.96 8.32 -4 9 C-4 8.34 -4 7.68 -4 7 C-6.31 7 -8.62 7 -11 7 C-9.25 5 -9.25 5 -7 3 C-5.68 3 -4.36 3 -3 3 C-3 2.34 -3 1.68 -3 1 C-2.01 0.67 -1.02 0.34 0 0 Z " fill="#565267" transform="translate(479,436)"/>
<path d="M0 0 C2.09350689 3.4019487 2.17942163 6.05272412 2 10 C-3.3177215 11.24200752 -8.58201328 12.30834212 -14 13 C-9.65757571 8.65757571 -5.86448454 8.2555331 0 8 C0 5.36 0 2.72 0 0 Z " fill="#686281" transform="translate(323,563)"/>
<path d="M0 0 C-2.75078884 0.91692961 -4.35948913 1.10886083 -7.1875 1.0625 C-9.0746875 1.0315625 -9.0746875 1.0315625 -11 1 C-11 1.66 -11 2.32 -11 3 C-20.41002278 5.29612756 -20.41002278 5.29612756 -25 5 C-23.66666667 4.33333333 -22.33333333 3.66666667 -21 3 C-20.154375 2.484375 -19.30875 1.96875 -18.4375 1.4375 C-12.68616011 -0.96760577 -6.0411492 -1.87190539 0 0 Z " fill="#67617B" transform="translate(241,527)"/>
<path d="M0 0 C3.28465896 2.79196011 5.01321958 6.23196817 7 10 C7 10.66 7 11.32 7 12 C3.20411134 11.45773019 1.52788007 9.79872437 -1 7 C-0.34 7 0.32 7 1 7 C0.67 4.69 0.34 2.38 0 0 Z " fill="#59546D" transform="translate(969,593)"/>
<path d="M0 0 C0.33 1.32 0.66 2.64 1 4 C-0.1446875 4.61875 -0.1446875 4.61875 -1.3125 5.25 C-3.95326316 6.96956671 -5.18383216 8.49195869 -7 11 C-7.66 11 -8.32 11 -9 11 C-9.66 12.32 -10.32 13.64 -11 15 C-11.66 14.67 -12.32 14.34 -13 14 C-11.58474822 12.41540185 -10.1677358 10.83237609 -8.75 9.25 C-7.96109375 8.36828125 -7.1721875 7.4865625 -6.359375 6.578125 C-4.29407328 4.32133835 -2.18264936 2.14260074 0 0 Z " fill="#5B586F" transform="translate(576,620)"/>
<path d="M0 0 C6.27 0.66 12.54 1.32 19 2 C18.67 3.65 18.34 5.3 18 7 C17.48953125 6.53980469 16.9790625 6.07960938 16.453125 5.60546875 C13.29765093 3.54034162 10.44166059 3.03032289 6.75 2.3125 C5.48671875 2.06113281 4.2234375 1.80976562 2.921875 1.55078125 C1.95765625 1.36902344 0.9934375 1.18726563 0 1 C0 0.67 0 0.34 0 0 Z " fill="#B2ADC8" transform="translate(161,527)"/>
<path d="M0 0 C0.598125 0.20625 1.19625 0.4125 1.8125 0.625 C0.8225 2.11 0.8225 2.11 -0.1875 3.625 C1.4625 3.295 3.1125 2.965 4.8125 2.625 C1.80632731 5.63117269 -1.01131598 5.22085316 -5.1875 5.625 C-5.1875 4.305 -5.1875 2.985 -5.1875 1.625 C-2.1875 -0.375 -2.1875 -0.375 0 0 Z " fill="#3A3552" transform="translate(483.1875,436.375)"/>
<path d="M0 0 C0.33 0 0.66 0 1 0 C0.67 4.95 0.34 9.9 0 15 C1.65 15 3.3 15 5 15 C5 15.33 5 15.66 5 16 C2.69 16 0.38 16 -2 16 C-2.05384521 13.70858714 -2.09272087 11.41681812 -2.125 9.125 C-2.14820313 7.84882812 -2.17140625 6.57265625 -2.1953125 5.2578125 C-2 2 -2 2 0 0 Z " fill="#837E97" transform="translate(623,596)"/>
<path d="M0 0 C-5.53646308 3.69097539 -12.48757154 4.16862615 -19 5 C-16.01243632 3.00829088 -13.44575614 1.97092021 -10.0625 0.8125 C-9.02222656 0.44769531 -7.98195313 0.08289063 -6.91015625 -0.29296875 C-4.04543948 -0.98896034 -2.71018643 -1.02529944 0 0 Z " fill="#9892AF" transform="translate(870,582)"/>
<path d="M0 0 C6.07593562 -0.11251733 11.96445452 0.30739642 18 1 C18.33 1.99 18.66 2.98 19 4 C12.60794144 3.27637073 6.31972924 2.19656638 0 1 C0 0.67 0 0.34 0 0 Z " fill="#A7A2BE" transform="translate(751,438)"/>
<path d="M0 0 C0.33 0.99 0.66 1.98 1 3 C1.99 3.33 2.98 3.66 4 4 C4 5.32 4 6.64 4 8 C4.66 8 5.32 8 6 8 C6.33 10.97 6.66 13.94 7 17 C4.09916946 15.54958473 4.02505692 13.7106171 3 10.6875 C1.85036229 7.32391153 0.67103808 4.14065639 -1 1 C-0.67 0.67 -0.34 0.34 0 0 Z " fill="#534F65" transform="translate(637,422)"/>
<path d="M0 0 C1.60517097 0.08733576 3.20921662 0.19552224 4.8125 0.3125 C6.15248047 0.39951172 6.15248047 0.39951172 7.51953125 0.48828125 C10 1 10 1 13 4 C8.05 3.67 3.1 3.34 -2 3 C-1.34 2.67 -0.68 2.34 0 2 C0 1.34 0 0.68 0 0 Z " fill="#615C76" transform="translate(620,415)"/>
<path d="M0 0 C-0.99 0.66 -1.98 1.32 -3 2 C-4.01868662 2.98095748 -5.02351983 3.97702078 -6 5 C-4.35 5.99 -2.7 6.98 -1 8 C-4.10551666 8 -5.35261084 7.4606285 -8 6 C-7.625 3.0625 -7.625 3.0625 -7 0 C-4.3333581 -1.33332095 -2.83319697 -0.67102033 0 0 Z " fill="#545073" transform="translate(300,579)"/>
<path d="M0 0 C0.33 0.66 0.66 1.32 1 2 C1.99 1.67 2.98 1.34 4 1 C5.89470816 0.9314505 7.7916834 0.91519628 9.6875 0.9375 C10.68136719 0.94652344 11.67523437 0.95554687 12.69921875 0.96484375 C13.83810547 0.98224609 13.83810547 0.98224609 15 1 C15 1.33 15 1.66 15 2 C9.72 2.66 4.44 3.32 -1 4 C-0.67 2.68 -0.34 1.36 0 0 Z " fill="#67617E" transform="translate(736,628)"/>
<path d="M0 0 C-0.99 0.33 -1.98 0.66 -3 1 C-4.37195574 2.29355827 -5.71182656 3.62298702 -7 5 C-7.33 4.34 -7.66 3.68 -8 3 C-8.66 3 -9.32 3 -10 3 C-10.33 2.01 -10.66 1.02 -11 0 C-3.57142857 -1.28571429 -3.57142857 -1.28571429 0 0 Z " fill="#635F77" transform="translate(812,552)"/>
<path d="M0 0 C-1.36983503 3.16115776 -1.9890638 3.9927092 -5 6 C-8.1875 6.125 -8.1875 6.125 -11 6 C-3.8 0 -3.8 0 0 0 Z " fill="#544D71" transform="translate(451,373)"/>
<path d="M0 0 C-1.59241408 4.29951803 -4.35540725 6.39671947 -8 9 C-8.99 8.67 -9.98 8.34 -11 8 C-9.54712339 6.66072279 -8.08752741 5.32873153 -6.625 4 C-5.81289063 3.2575 -5.00078125 2.515 -4.1640625 1.75 C-2 0 -2 0 0 0 Z " fill="#AFACC4" transform="translate(635,703)"/>
<path d="M0 0 C0.33 0.99 0.66 1.98 1 3 C-1.64 5.31 -4.28 7.62 -7 10 C-7.66 9.67 -8.32 9.34 -9 9 C-6.03 6.03 -3.06 3.06 0 0 Z " fill="#A8A2BD" transform="translate(688,659)"/>
<path d="M0 0 C0.33 0.99 0.66 1.98 1 3 C-1.5162178 5.60608273 -4.05134359 7.89381685 -7 10 C-7.66 9.67 -8.32 9.34 -9 9 C-6.03 6.03 -3.06 3.06 0 0 Z " fill="#4B4562" transform="translate(599,597)"/>
<path d="M0 0 C0.66 1.32 1.32 2.64 2 4 C-5.425 3.01 -5.425 3.01 -13 2 C-13 1.67 -13 1.34 -13 1 C-8.48382401 0.92345464 -4.40914783 0.89771304 0 2 C0 1.34 0 0.68 0 0 Z " fill="#69637D" transform="translate(344,628)"/>
<path d="M0 0 C2.25 -0.3125 2.25 -0.3125 5 0 C7.3125 2.5 7.3125 2.5 9 5 C7.35 5 5.7 5 4 5 C4 4.34 4 3.68 4 3 C2.68 2.34 1.36 1.68 0 1 C0 0.67 0 0.34 0 0 Z " fill="#524E65" transform="translate(458,577)"/>
<path d="M0 0 C0 0.66 0 1.32 0 2 C-0.99 2 -1.98 2 -3 2 C-3.2475 2.639375 -3.495 3.27875 -3.75 3.9375 C-5 6 -5 6 -7 6.8125 C-9 7 -9 7 -11 6 C-9.54550599 4.9944239 -8.08627557 3.99569565 -6.625 3 C-5.40683594 2.1646875 -5.40683594 2.1646875 -4.1640625 1.3125 C-2 0 -2 0 0 0 Z " fill="#524C6E" transform="translate(160,508)"/>
<path d="M0 0 C0.66 0.33 1.32 0.66 2 1 C-0.97 4.96 -0.97 4.96 -4 9 C-4.99 8.67 -5.98 8.34 -7 8 C-4.69 5.36 -2.38 2.72 0 0 Z " fill="#564F70" transform="translate(130,568)"/>
<path d="M0 0 C0.33 0.66 0.66 1.32 1 2 C0 4 0 4 -3.0625 5.125 C-4.5165625 5.558125 -4.5165625 5.558125 -6 6 C-6 5.01 -6 4.02 -6 3 C-4.02 2.01 -2.04 1.02 0 0 Z " fill="#BCBAD3" transform="translate(300,579)"/>
<path d="M0 0 C0.33 0.66 0.66 1.32 1 2 C-0.92333011 6.06036357 -3.40069448 8.37347975 -7 11 C-6.75 8.625 -6.75 8.625 -6 6 C-4.0625 4.9375 -4.0625 4.9375 -2 4 C-0.73195434 1.9664052 -0.73195434 1.9664052 0 0 Z " fill="#6C687D" transform="translate(611,553)"/>
<path d="M0 0 C-0.99 1.485 -0.99 1.485 -2 3 C-3.9453125 3.29296875 -3.9453125 3.29296875 -6.125 3.1875 C-7.40375 3.125625 -8.6825 3.06375 -10 3 C-9 1 -9 1 -5.5625 -0.1875 C-2 -1 -2 -1 0 0 Z " fill="#DEDCE7" transform="translate(203,538)"/>
<path d="M0 0 C0.33 0.66 0.66 1.32 1 2 C-1.16798732 7.4770206 -1.16798732 7.4770206 -4.1875 9.375 C-4.785625 9.58125 -5.38375 9.7875 -6 10 C-4.34832443 6.4213696 -2.21713508 3.25179812 0 0 Z " fill="#585376" transform="translate(384,428)"/>
<path d="M0 0 C0.66 0.33 1.32 0.66 2 1 C0.68 2.65 -0.64 4.3 -2 6 C-3.32 5.34 -4.64 4.68 -6 4 C-4.03617993 2.49440461 -2.21736634 1.10868317 0 0 Z " fill="#B9B4D1" transform="translate(294,480)"/>
<path d="M0 0 C4.02992782 0.55312735 8.02022924 1.1558062 12 2 C12 2.33 12 2.66 12 3 C7.545 3.495 7.545 3.495 3 4 C3 3.01 3 2.02 3 1 C2.01 0.67 1.02 0.34 0 0 Z " fill="#6A647C" transform="translate(448,610)"/>
<path d="M0 0 C0 0.66 0 1.32 0 2 C-3.3 2 -6.6 2 -10 2 C-10 1.34 -10 0.68 -10 0 C-6.30458414 -0.95024979 -3.69541586 -0.95024979 0 0 Z " fill="#26223F" transform="translate(515,579)"/>
<path d="M0 0 C0.99 1.32 1.98 2.64 3 4 C1.625 5.5 1.625 5.5 0 7 C-0.66 7 -1.32 7 -2 7 C-1.125 2.25 -1.125 2.25 0 0 Z " fill="#5A546B" transform="translate(108,597)"/>
<path d="M0 0 C0 0.66 0 1.32 0 2 C-0.94875 2.309375 -1.8975 2.61875 -2.875 2.9375 C-5.86080408 3.87394742 -5.86080408 3.87394742 -8 5 C-8 3.68 -8 2.36 -8 1 C-5.10765685 0.17361624 -3.11257569 0 0 0 Z " fill="#403B5F" transform="translate(757,597)"/>
<path d="M0 0 C0.66 0 1.32 0 2 0 C0.61122646 3.35620271 -0.91677965 5.07298728 -4 7 C-4.66 7 -5.32 7 -6 7 C-6 6.34 -6 5.68 -6 5 C-5.01 5 -4.02 5 -3 5 C-2.67 4.01 -2.34 3.02 -2 2 C-1.34 2 -0.68 2 0 2 C0 1.34 0 0.68 0 0 Z " fill="#3B384F" transform="translate(521,574)"/>
<path d="M0 0 C1.32 0 2.64 0 4 0 C4 1.98 4 3.96 4 6 C3.01 5.67 2.02 5.34 1 5 C0.67 3.35 0.34 1.7 0 0 Z " fill="#C6C3D2" transform="translate(559,658)"/>
<path d="M0 0 C0 0.66 0 1.32 0 2 C-2.3125 3.6875 -2.3125 3.6875 -5 5 C-5.99 4.67 -6.98 4.34 -8 4 C-2.25 0 -2.25 0 0 0 Z " fill="#B1ADC5" transform="translate(118,598)"/>
<path d="M0 0 C1.65 0 3.3 0 5 0 C6.35439668 2.70879335 6.06501451 5.00933268 6 8 C4 5 4 5 3.5625 2.875 C3.376875 2.25625 3.19125 1.6375 3 1 C2.01 0.67 1.02 0.34 0 0 Z " fill="#ADA8C0" transform="translate(328,597)"/>
<path d="M0 0 C0.66 0.33 1.32 0.66 2 1 C-1.465 3.97 -1.465 3.97 -5 7 C-5.66 6.67 -6.32 6.34 -7 6 C-4.69 4.02 -2.38 2.04 0 0 Z " fill="#4C4467" transform="translate(142,558)"/>
<path d="M0 0 C0 0.99 0 1.98 0 3 C-3 5 -3 5 -5.1875 4.625 C-5.785625 4.41875 -6.38375 4.2125 -7 4 C-4.69 2.68 -2.38 1.36 0 0 Z " fill="#4B4667" transform="translate(170,501)"/>
</svg>
